<svg xmlns="http://www.w3.org/2000/svg" viewBox="0 0 173.92 230.31"><defs><style>.cls-1{fill:#fff;}.cls-1,.cls-3{stroke:#000;stroke-miterlimit:10;}.cls-2,.cls-3{fill:#29abe2;}</style></defs><title>Asset 1</title><g id="Layer_2" data-name="Layer 2"><g id="Working_Layer" data-name="Working Layer"><path class="cls-1" d="M60.77,4A72.33,72.33,0,0,1,83.51.5c12.81,0,24.3,3,32.17,7.76"/><path class="cls-1" d="M131.93,48.64c0,29.3-20.69,53.06-46.21,53.06s-46.2-23.76-46.2-53.06a60.26,60.26,0,0,1,2.87-18.46,57.24,57.24,0,0,1,3.48-8.4c6.36,8.44,21.81,14.4,39.85,14.4s33.49-6,39.85-14.4q.47.9.9,1.83A59,59,0,0,1,131.93,48.64Z"/><path class="cls-2" d="M132.28,109.26H52.39l.1.13-52,38.69v81.83H173.39V156.27ZM130.7,175.5H95v33.29H72V175.5H35V156.93H72V129.5H95v27.43H130.7Z"/><path d="M132.07,109.72l-39.86.1H52.39l.43-.88.1.13.34.44-.44.33-52,38.66.21-.41C1,161.72.93,175.36.87,189L.65,229.91l-.14-.14c14.41.11,28.81.11,43.22.13L87,229.79l86.44-.28-.4.4-.11-36.82,0-36.82.13.35L152.51,133.2Zm.42-.92,20.67,23.52,20.63,23.6.13.15v.2l0,36.82-.11,36.82v.4h-.4L87,230l-43.22-.11c-14.41,0-28.81,0-43.22.13H.38v-.14L.15,189C.09,175.36,0,161.72,0,148.08v-.26l.21-.15,52-38.72-.1.77-.1-.13-.68-.88H92.46Z"/><path d="M131.05,175.85c-12,.1-24,.25-36,.21l.56-.56,0,33.29v.53H95l-23,0H71.5v-.51l0-16.65.11-16.64.36.36-18.5-.18c-6.17-.06-12.33-.13-18.5-.14h0v0c0-6.19.06-12.38,0-18.57h0l18.5,0,18.5-.1-.15.15L71.7,129.5v-.31H72l23-.13h.44v.45l.06,13.71,0,13.72-.52-.52,35.69,0h.55v.55C131.24,163.25,131.15,169.6,131.05,175.85Zm-.7-.7c-.1-6.13-.19-12.16-.2-18.22l.55.55-35.69,0h-.52v-.52l0-13.72.06-13.71.44.44-23-.13.31-.31-.16,27.43v.15H72l-18.5-.1-18.5,0h0c0,6.19,0,12.38,0,18.57l0,0c6.17,0,12.33-.08,18.5-.14l18.5-.18h.36v.36l.11,16.64,0,16.65-.51-.51,23,0-.53.53,0-33.29v-.56H95C106.76,174.9,118.51,175.05,130.35,175.15Z"/><path class="cls-1" d="M43,15.78a14.93,14.93,0,0,0,2.83,6A50.76,50.76,0,0,1,60.77,4"/><path class="cls-1" d="M60.77,4A72.33,72.33,0,0,1,83.51.5c12.81,0,24.3,3,32.17,7.76"/><path class="cls-1" d="M126.19,20.9c-.19.3-.4.59-.62.88a51.65,51.65,0,0,0-9.89-13.52C121.38,11.71,125.18,16.08,126.19,20.9Z"/><path class="cls-3" d="M60.77,4a50.76,50.76,0,0,0-14.9,17.79c6.36,8.44,21.81,14.4,39.85,14.4s33.49-6,39.85-14.4a51.65,51.65,0,0,0-9.89-13.52c5.7,3.45,9.5,7.82,10.51,12.64a11.9,11.9,0,0,1,.28,2.6v.11c-.11,12.65-19.3,22.89-43,22.89-19.39,0-35.78-6.88-41.12-16.32"/><circle class="cls-1" cx="84.88" cy="39.11" r="11.87"/></g></g></svg>